<mxfile host="app.diagrams.net" modified="2022-09-14T08:49:13.070Z" agent="5.0 (Macintosh; Intel Mac OS X 10_15_7) AppleWebKit/537.36 (KHTML, like Gecko) Chrome/105.0.0.0 Safari/537.36" etag="pXQEEpETS6ouVY8-nDm1" version="20.3.0" type="github">
  <diagram id="Q1O8JX786RVMudkXH0Y0" name="第 1 页">
    <mxGraphModel dx="1426" dy="826" grid="1" gridSize="10" guides="1" tooltips="1" connect="1" arrows="1" fold="1" page="1" pageScale="1" pageWidth="827" pageHeight="1169" math="0" shadow="0">
      <root>
        <mxCell id="0" />
        <mxCell id="1" parent="0" />
        <mxCell id="-dKRlnVZoFf6JH3C2UQ4-1" value="" style="rounded=0;whiteSpace=wrap;html=1;" parent="1" vertex="1">
          <mxGeometry x="957" y="2010" width="638" height="693" as="geometry" />
        </mxCell>
        <mxCell id="-dKRlnVZoFf6JH3C2UQ4-2" style="rounded=0;orthogonalLoop=1;jettySize=auto;html=1;exitX=1;exitY=0.5;exitDx=0;exitDy=0;" parent="1" source="-dKRlnVZoFf6JH3C2UQ4-3" target="-dKRlnVZoFf6JH3C2UQ4-5" edge="1">
          <mxGeometry relative="1" as="geometry" />
        </mxCell>
        <mxCell id="-dKRlnVZoFf6JH3C2UQ4-3" value="&lt;span style=&quot;color: rgb(50 , 50 , 50) ; font-size: 13px ; background-color: rgba(255 , 255 , 255 , 0.01)&quot;&gt;resolveDispatcher&lt;/span&gt;" style="rounded=0;whiteSpace=wrap;html=1;" parent="1" vertex="1">
          <mxGeometry x="342" y="742" width="154" height="49" as="geometry" />
        </mxCell>
        <mxCell id="-dKRlnVZoFf6JH3C2UQ4-4" style="edgeStyle=none;rounded=0;orthogonalLoop=1;jettySize=auto;html=1;exitX=1;exitY=0.5;exitDx=0;exitDy=0;entryX=0;entryY=0.5;entryDx=0;entryDy=0;" parent="1" source="-dKRlnVZoFf6JH3C2UQ4-5" target="-dKRlnVZoFf6JH3C2UQ4-9" edge="1">
          <mxGeometry relative="1" as="geometry" />
        </mxCell>
        <mxCell id="-dKRlnVZoFf6JH3C2UQ4-5" value="&lt;span style=&quot;color: rgb(50 , 50 , 50) ; font-size: 13px ; background-color: rgba(255 , 255 , 255 , 0.01)&quot;&gt;dispatch&lt;/span&gt;" style="rounded=0;whiteSpace=wrap;html=1;" parent="1" vertex="1">
          <mxGeometry x="683" y="720" width="143" height="49" as="geometry" />
        </mxCell>
        <mxCell id="-dKRlnVZoFf6JH3C2UQ4-6" style="edgeStyle=none;rounded=0;orthogonalLoop=1;jettySize=auto;html=1;exitX=0.5;exitY=1;exitDx=0;exitDy=0;entryX=0.5;entryY=0;entryDx=0;entryDy=0;" parent="1" source="-dKRlnVZoFf6JH3C2UQ4-9" target="-dKRlnVZoFf6JH3C2UQ4-11" edge="1">
          <mxGeometry relative="1" as="geometry" />
        </mxCell>
        <mxCell id="-dKRlnVZoFf6JH3C2UQ4-7" value="firstPaint" style="edgeLabel;html=1;align=center;verticalAlign=middle;resizable=0;points=[];" parent="-dKRlnVZoFf6JH3C2UQ4-6" vertex="1" connectable="0">
          <mxGeometry x="-0.089" y="-4" relative="1" as="geometry">
            <mxPoint as="offset" />
          </mxGeometry>
        </mxCell>
        <mxCell id="-dKRlnVZoFf6JH3C2UQ4-8" value="update" style="edgeStyle=none;rounded=0;orthogonalLoop=1;jettySize=auto;html=1;exitX=0.25;exitY=1;exitDx=0;exitDy=0;entryX=0.5;entryY=0;entryDx=0;entryDy=0;" parent="1" source="-dKRlnVZoFf6JH3C2UQ4-9" target="-dKRlnVZoFf6JH3C2UQ4-66" edge="1">
          <mxGeometry relative="1" as="geometry" />
        </mxCell>
        <mxCell id="-dKRlnVZoFf6JH3C2UQ4-9" value="&lt;span style=&quot;color: rgb(50 , 50 , 50) ; font-size: 13px ; background-color: rgba(255 , 255 , 255 , 0.01)&quot;&gt;dispatcher.useEffect&lt;/span&gt;" style="rounded=0;whiteSpace=wrap;html=1;" parent="1" vertex="1">
          <mxGeometry x="969" y="643" width="165" height="49" as="geometry" />
        </mxCell>
        <mxCell id="-dKRlnVZoFf6JH3C2UQ4-10" style="edgeStyle=none;rounded=0;orthogonalLoop=1;jettySize=auto;html=1;exitX=0.5;exitY=1;exitDx=0;exitDy=0;entryX=0.5;entryY=0;entryDx=0;entryDy=0;" parent="1" source="-dKRlnVZoFf6JH3C2UQ4-11" target="-dKRlnVZoFf6JH3C2UQ4-13" edge="1">
          <mxGeometry relative="1" as="geometry" />
        </mxCell>
        <mxCell id="-dKRlnVZoFf6JH3C2UQ4-11" value="&lt;span style=&quot;color: rgb(50 , 50 , 50) ; font-size: 13px ; background-color: rgba(255 , 255 , 255 , 0.01)&quot;&gt;HooksDispatcherOnMountInDEV.useEffect&lt;/span&gt;" style="rounded=0;whiteSpace=wrap;html=1;" parent="1" vertex="1">
          <mxGeometry x="1057" y="841" width="286" height="60" as="geometry" />
        </mxCell>
        <mxCell id="-dKRlnVZoFf6JH3C2UQ4-12" style="edgeStyle=none;rounded=0;orthogonalLoop=1;jettySize=auto;html=1;exitX=0.5;exitY=1;exitDx=0;exitDy=0;entryX=0.5;entryY=0;entryDx=0;entryDy=0;" parent="1" source="-dKRlnVZoFf6JH3C2UQ4-13" target="-dKRlnVZoFf6JH3C2UQ4-15" edge="1">
          <mxGeometry relative="1" as="geometry" />
        </mxCell>
        <mxCell id="-dKRlnVZoFf6JH3C2UQ4-13" value="&lt;span style=&quot;color: rgb(50 , 50 , 50) ; font-size: 13px ; background-color: rgba(255 , 255 , 255 , 0.01)&quot;&gt;mountEffect&lt;/span&gt;" style="rounded=0;whiteSpace=wrap;html=1;" parent="1" vertex="1">
          <mxGeometry x="1002" y="962" width="132" height="49" as="geometry" />
        </mxCell>
        <mxCell id="-dKRlnVZoFf6JH3C2UQ4-14" style="edgeStyle=none;rounded=0;orthogonalLoop=1;jettySize=auto;html=1;exitX=0.75;exitY=1;exitDx=0;exitDy=0;entryX=0.5;entryY=0;entryDx=0;entryDy=0;" parent="1" source="-dKRlnVZoFf6JH3C2UQ4-15" target="-dKRlnVZoFf6JH3C2UQ4-17" edge="1">
          <mxGeometry relative="1" as="geometry" />
        </mxCell>
        <mxCell id="-dKRlnVZoFf6JH3C2UQ4-15" value="&lt;span style=&quot;color: rgb(50 , 50 , 50) ; font-size: 13px ; background-color: rgba(255 , 255 , 255 , 0.01)&quot;&gt;mountEffectImpl&lt;/span&gt;" style="rounded=0;whiteSpace=wrap;html=1;" parent="1" vertex="1">
          <mxGeometry x="1123" y="1039" width="132" height="44" as="geometry" />
        </mxCell>
        <mxCell id="-dKRlnVZoFf6JH3C2UQ4-16" style="edgeStyle=none;rounded=0;orthogonalLoop=1;jettySize=auto;html=1;exitX=0.5;exitY=1;exitDx=0;exitDy=0;entryX=0.5;entryY=0;entryDx=0;entryDy=0;" parent="1" source="-dKRlnVZoFf6JH3C2UQ4-17" target="-dKRlnVZoFf6JH3C2UQ4-18" edge="1">
          <mxGeometry relative="1" as="geometry" />
        </mxCell>
        <mxCell id="-dKRlnVZoFf6JH3C2UQ4-17" value="&lt;span style=&quot;color: rgb(50 , 50 , 50) ; font-size: 13px ; background-color: rgba(255 , 255 , 255 , 0.01)&quot;&gt;pushEffect&lt;/span&gt;" style="rounded=0;whiteSpace=wrap;html=1;" parent="1" vertex="1">
          <mxGeometry x="1090" y="1138" width="137" height="49" as="geometry" />
        </mxCell>
        <mxCell id="-dKRlnVZoFf6JH3C2UQ4-18" value="&lt;span style=&quot;color: rgb(50 , 50 , 50) ; font-size: 13px ; font-style: normal ; font-weight: 400 ; letter-spacing: normal ; text-align: center ; text-indent: 0px ; text-transform: none ; word-spacing: 0px ; background-color: rgba(255 , 255 , 255 , 0.01) ; display: inline ; float: none&quot;&gt;build an effect loop chain&lt;/span&gt;" style="text;whiteSpace=wrap;html=1;" parent="1" vertex="1">
          <mxGeometry x="980" y="1239.5" width="154" height="33" as="geometry" />
        </mxCell>
        <mxCell id="-dKRlnVZoFf6JH3C2UQ4-19" style="edgeStyle=none;rounded=0;orthogonalLoop=1;jettySize=auto;html=1;exitX=0.5;exitY=1;exitDx=0;exitDy=0;entryX=0.5;entryY=0;entryDx=0;entryDy=0;" parent="1" source="-dKRlnVZoFf6JH3C2UQ4-20" target="-dKRlnVZoFf6JH3C2UQ4-22" edge="1">
          <mxGeometry relative="1" as="geometry" />
        </mxCell>
        <mxCell id="-dKRlnVZoFf6JH3C2UQ4-20" value="&lt;span style=&quot;color: rgb(50 , 50 , 50) ; font-size: 13px ; background-color: rgba(255 , 255 , 255 , 0.01)&quot;&gt;commitRoot&lt;/span&gt;" style="rounded=0;whiteSpace=wrap;html=1;" parent="1" vertex="1">
          <mxGeometry x="1459" y="1303" width="120" height="60" as="geometry" />
        </mxCell>
        <mxCell id="-dKRlnVZoFf6JH3C2UQ4-21" style="rounded=0;orthogonalLoop=1;jettySize=auto;html=1;exitX=0.5;exitY=1;exitDx=0;exitDy=0;entryX=0.5;entryY=0;entryDx=0;entryDy=0;" parent="1" source="-dKRlnVZoFf6JH3C2UQ4-22" target="-dKRlnVZoFf6JH3C2UQ4-35" edge="1">
          <mxGeometry relative="1" as="geometry" />
        </mxCell>
        <mxCell id="-dKRlnVZoFf6JH3C2UQ4-22" value="&lt;span style=&quot;color: rgb(50 , 50 , 50) ; font-size: 13px ; background-color: rgba(255 , 255 , 255 , 0.01)&quot;&gt;commitRootImpl&lt;/span&gt;" style="rounded=0;whiteSpace=wrap;html=1;" parent="1" vertex="1">
          <mxGeometry x="1515" y="1407.5" width="120" height="60" as="geometry" />
        </mxCell>
        <mxCell id="-dKRlnVZoFf6JH3C2UQ4-23" style="edgeStyle=none;rounded=0;orthogonalLoop=1;jettySize=auto;html=1;exitX=0.5;exitY=1;exitDx=0;exitDy=0;entryX=0.5;entryY=0;entryDx=0;entryDy=0;" parent="1" source="-dKRlnVZoFf6JH3C2UQ4-24" target="-dKRlnVZoFf6JH3C2UQ4-26" edge="1">
          <mxGeometry relative="1" as="geometry" />
        </mxCell>
        <mxCell id="-dKRlnVZoFf6JH3C2UQ4-24" value="&lt;span style=&quot;color: rgb(50 , 50 , 50) ; font-size: 13px ; background-color: rgba(255 , 255 , 255 , 0.01)&quot;&gt;commitMutationEffects&lt;/span&gt;" style="rounded=0;whiteSpace=wrap;html=1;" parent="1" vertex="1">
          <mxGeometry x="1613" y="1501" width="187" height="60" as="geometry" />
        </mxCell>
        <mxCell id="-dKRlnVZoFf6JH3C2UQ4-25" style="rounded=0;orthogonalLoop=1;jettySize=auto;html=1;exitX=0.25;exitY=1;exitDx=0;exitDy=0;entryX=0.5;entryY=0;entryDx=0;entryDy=0;" parent="1" source="-dKRlnVZoFf6JH3C2UQ4-26" target="-dKRlnVZoFf6JH3C2UQ4-29" edge="1">
          <mxGeometry relative="1" as="geometry" />
        </mxCell>
        <mxCell id="-dKRlnVZoFf6JH3C2UQ4-26" value="&lt;span style=&quot;color: rgb(50 , 50 , 50) ; font-size: 13px ; background-color: rgba(255 , 255 , 255 , 0.01)&quot;&gt;commitMutationEffectsOnFiber&lt;/span&gt;" style="rounded=0;whiteSpace=wrap;html=1;" parent="1" vertex="1">
          <mxGeometry x="1624" y="1611" width="230" height="49" as="geometry" />
        </mxCell>
        <mxCell id="-dKRlnVZoFf6JH3C2UQ4-27" style="edgeStyle=orthogonalEdgeStyle;rounded=0;orthogonalLoop=1;jettySize=auto;html=1;exitX=0.75;exitY=1;exitDx=0;exitDy=0;" parent="1" source="-dKRlnVZoFf6JH3C2UQ4-26" edge="1">
          <mxGeometry relative="1" as="geometry">
            <mxPoint x="1789" y="1610" as="targetPoint" />
          </mxGeometry>
        </mxCell>
        <mxCell id="-dKRlnVZoFf6JH3C2UQ4-28" style="edgeStyle=none;rounded=0;orthogonalLoop=1;jettySize=auto;html=1;exitX=0.5;exitY=1;exitDx=0;exitDy=0;entryX=0.5;entryY=0;entryDx=0;entryDy=0;" parent="1" source="-dKRlnVZoFf6JH3C2UQ4-29" target="-dKRlnVZoFf6JH3C2UQ4-31" edge="1">
          <mxGeometry relative="1" as="geometry" />
        </mxCell>
        <mxCell id="-dKRlnVZoFf6JH3C2UQ4-29" value="&lt;span style=&quot;color: rgb(50 , 50 , 50) ; font-size: 13px ; background-color: rgba(255 , 255 , 255 , 0.01)&quot;&gt;commitReconciliationEffects&lt;/span&gt;" style="rounded=0;whiteSpace=wrap;html=1;" parent="1" vertex="1">
          <mxGeometry x="1547" y="1710" width="208" height="60" as="geometry" />
        </mxCell>
        <mxCell id="-dKRlnVZoFf6JH3C2UQ4-30" style="edgeStyle=none;rounded=0;orthogonalLoop=1;jettySize=auto;html=1;exitX=0.5;exitY=1;exitDx=0;exitDy=0;entryX=0.5;entryY=0;entryDx=0;entryDy=0;" parent="1" source="-dKRlnVZoFf6JH3C2UQ4-31" target="-dKRlnVZoFf6JH3C2UQ4-32" edge="1">
          <mxGeometry relative="1" as="geometry" />
        </mxCell>
        <mxCell id="-dKRlnVZoFf6JH3C2UQ4-31" value="&lt;span style=&quot;color: rgb(50 , 50 , 50) ; font-size: 13px ; background-color: rgba(255 , 255 , 255 , 0.01)&quot;&gt;commitPlacement&lt;/span&gt;" style="rounded=0;whiteSpace=wrap;html=1;" parent="1" vertex="1">
          <mxGeometry x="1635" y="1809" width="176" height="60" as="geometry" />
        </mxCell>
        <mxCell id="-dKRlnVZoFf6JH3C2UQ4-32" value="&lt;span style=&quot;color: rgb(50 , 50 , 50) ; font-size: 13px ; background-color: rgba(255 , 255 , 255 , 0.01)&quot;&gt;insertOrAppendPlacementNodeIntoContainer&lt;/span&gt;" style="rounded=0;whiteSpace=wrap;html=1;" parent="1" vertex="1">
          <mxGeometry x="1657" y="1897" width="307" height="60" as="geometry" />
        </mxCell>
        <mxCell id="-dKRlnVZoFf6JH3C2UQ4-33" value="" style="endArrow=classic;html=1;edgeStyle=orthogonalEdgeStyle;exitX=0.603;exitY=1.033;exitDx=0;exitDy=0;exitPerimeter=0;entryX=0.75;entryY=0;entryDx=0;entryDy=0;" parent="1" source="-dKRlnVZoFf6JH3C2UQ4-32" target="-dKRlnVZoFf6JH3C2UQ4-32" edge="1">
          <mxGeometry width="50" height="50" relative="1" as="geometry">
            <mxPoint x="1833" y="2035" as="sourcePoint" />
            <mxPoint x="1877" y="1831" as="targetPoint" />
            <Array as="points">
              <mxPoint x="1842" y="1985" />
              <mxPoint x="1987" y="1985" />
              <mxPoint x="1987" y="1864" />
              <mxPoint x="1887" y="1864" />
            </Array>
          </mxGeometry>
        </mxCell>
        <mxCell id="-dKRlnVZoFf6JH3C2UQ4-34" style="rounded=0;orthogonalLoop=1;jettySize=auto;html=1;exitX=0.25;exitY=1;exitDx=0;exitDy=0;" parent="1" source="-dKRlnVZoFf6JH3C2UQ4-35" target="-dKRlnVZoFf6JH3C2UQ4-44" edge="1">
          <mxGeometry relative="1" as="geometry" />
        </mxCell>
        <mxCell id="-dKRlnVZoFf6JH3C2UQ4-35" value="&lt;span style=&quot;color: rgb(50 , 50 , 50) ; font-size: 13px ; background-color: rgba(255 , 255 , 255 , 0.01)&quot;&gt;scheduleCallback$2&lt;/span&gt;" style="rounded=0;whiteSpace=wrap;html=1;" parent="1" vertex="1">
          <mxGeometry x="1272" y="1523" width="164" height="49" as="geometry" />
        </mxCell>
        <mxCell id="-dKRlnVZoFf6JH3C2UQ4-36" style="edgeStyle=none;rounded=0;orthogonalLoop=1;jettySize=auto;html=1;exitX=0.5;exitY=1;exitDx=0;exitDy=0;entryX=0.608;entryY=0.017;entryDx=0;entryDy=0;entryPerimeter=0;" parent="1" source="-dKRlnVZoFf6JH3C2UQ4-37" target="-dKRlnVZoFf6JH3C2UQ4-40" edge="1">
          <mxGeometry relative="1" as="geometry" />
        </mxCell>
        <mxCell id="-dKRlnVZoFf6JH3C2UQ4-37" value="&lt;span style=&quot;color: rgb(50 , 50 , 50) ; font-size: 13px ; background-color: rgba(255 , 255 , 255 , 0.01)&quot;&gt;schedulePerformWorkUntilDeadline&lt;/span&gt;" style="rounded=0;whiteSpace=wrap;html=1;" parent="1" vertex="1">
          <mxGeometry x="1140" y="1721" width="264" height="60" as="geometry" />
        </mxCell>
        <mxCell id="-dKRlnVZoFf6JH3C2UQ4-38" style="edgeStyle=none;rounded=0;orthogonalLoop=1;jettySize=auto;html=1;exitX=0.5;exitY=1;exitDx=0;exitDy=0;entryX=0.25;entryY=0;entryDx=0;entryDy=0;" parent="1" source="-dKRlnVZoFf6JH3C2UQ4-40" target="-dKRlnVZoFf6JH3C2UQ4-1" edge="1">
          <mxGeometry relative="1" as="geometry">
            <mxPoint x="859" y="1974" as="targetPoint" />
          </mxGeometry>
        </mxCell>
        <mxCell id="-dKRlnVZoFf6JH3C2UQ4-39" style="edgeStyle=none;rounded=0;orthogonalLoop=1;jettySize=auto;html=1;exitX=1;exitY=0.5;exitDx=0;exitDy=0;entryX=0;entryY=1;entryDx=0;entryDy=0;" parent="1" source="-dKRlnVZoFf6JH3C2UQ4-40" target="-dKRlnVZoFf6JH3C2UQ4-24" edge="1">
          <mxGeometry relative="1" as="geometry" />
        </mxCell>
        <mxCell id="-dKRlnVZoFf6JH3C2UQ4-40" value="&lt;span style=&quot;color: rgb(50 , 50 , 50) ; font-size: 13px ; background-color: rgba(255 , 255 , 255 , 0.01)&quot;&gt;postMessage(null)&lt;/span&gt;" style="rounded=0;whiteSpace=wrap;html=1;" parent="1" vertex="1">
          <mxGeometry x="1217" y="1858" width="165" height="55" as="geometry" />
        </mxCell>
        <mxCell id="-dKRlnVZoFf6JH3C2UQ4-41" style="edgeStyle=none;rounded=0;orthogonalLoop=1;jettySize=auto;html=1;exitX=0.75;exitY=1;exitDx=0;exitDy=0;entryX=0;entryY=0;entryDx=0;entryDy=0;" parent="1" source="-dKRlnVZoFf6JH3C2UQ4-42" target="-dKRlnVZoFf6JH3C2UQ4-40" edge="1">
          <mxGeometry relative="1" as="geometry" />
        </mxCell>
        <mxCell id="-dKRlnVZoFf6JH3C2UQ4-42" value="&lt;meta charset=&quot;utf-8&quot;&gt;&lt;span style=&quot;color: rgb(50, 50, 50); font-size: 13px; font-style: normal; font-weight: 400; letter-spacing: normal; text-align: center; text-indent: 0px; text-transform: none; word-spacing: 0px; background-color: rgba(255, 255, 255, 0.01); display: inline; float: none;&quot;&gt;Window.MessagePort&lt;/span&gt;" style="text;whiteSpace=wrap;html=1;" parent="1" vertex="1">
          <mxGeometry x="890" y="1790" width="154" height="28" as="geometry" />
        </mxCell>
        <mxCell id="-dKRlnVZoFf6JH3C2UQ4-43" style="edgeStyle=none;rounded=0;orthogonalLoop=1;jettySize=auto;html=1;exitX=0.5;exitY=1;exitDx=0;exitDy=0;entryX=0.5;entryY=0;entryDx=0;entryDy=0;" parent="1" source="-dKRlnVZoFf6JH3C2UQ4-44" target="-dKRlnVZoFf6JH3C2UQ4-37" edge="1">
          <mxGeometry relative="1" as="geometry" />
        </mxCell>
        <mxCell id="-dKRlnVZoFf6JH3C2UQ4-44" value="requestHostCallback" style="rounded=0;whiteSpace=wrap;html=1;" parent="1" vertex="1">
          <mxGeometry x="1173" y="1611" width="209" height="55" as="geometry" />
        </mxCell>
        <mxCell id="-dKRlnVZoFf6JH3C2UQ4-45" style="edgeStyle=none;rounded=0;orthogonalLoop=1;jettySize=auto;html=1;exitX=0.75;exitY=1;exitDx=0;exitDy=0;entryX=0.5;entryY=0;entryDx=0;entryDy=0;" parent="1" source="-dKRlnVZoFf6JH3C2UQ4-46" target="-dKRlnVZoFf6JH3C2UQ4-49" edge="1">
          <mxGeometry relative="1" as="geometry" />
        </mxCell>
        <mxCell id="-dKRlnVZoFf6JH3C2UQ4-46" value="performWorkUntilDeadline" style="rounded=0;whiteSpace=wrap;html=1;" parent="1" vertex="1">
          <mxGeometry x="1056" y="2065" width="242" height="49" as="geometry" />
        </mxCell>
        <mxCell id="-dKRlnVZoFf6JH3C2UQ4-47" value="async" style="rounded=1;whiteSpace=wrap;html=1;" parent="1" vertex="1">
          <mxGeometry x="902" y="2043" width="119" height="33" as="geometry" />
        </mxCell>
        <mxCell id="-dKRlnVZoFf6JH3C2UQ4-48" style="edgeStyle=none;rounded=0;orthogonalLoop=1;jettySize=auto;html=1;exitX=0.75;exitY=1;exitDx=0;exitDy=0;entryX=0.5;entryY=0;entryDx=0;entryDy=0;" parent="1" source="-dKRlnVZoFf6JH3C2UQ4-49" target="-dKRlnVZoFf6JH3C2UQ4-51" edge="1">
          <mxGeometry relative="1" as="geometry" />
        </mxCell>
        <mxCell id="-dKRlnVZoFf6JH3C2UQ4-49" value="scheduledHostCallback" style="rounded=0;whiteSpace=wrap;html=1;" parent="1" vertex="1">
          <mxGeometry x="1062" y="2142" width="197" height="49" as="geometry" />
        </mxCell>
        <mxCell id="-dKRlnVZoFf6JH3C2UQ4-50" style="edgeStyle=none;rounded=0;orthogonalLoop=1;jettySize=auto;html=1;exitX=0.5;exitY=1;exitDx=0;exitDy=0;entryX=0.5;entryY=0;entryDx=0;entryDy=0;" parent="1" source="-dKRlnVZoFf6JH3C2UQ4-51" target="-dKRlnVZoFf6JH3C2UQ4-53" edge="1">
          <mxGeometry relative="1" as="geometry" />
        </mxCell>
        <mxCell id="-dKRlnVZoFf6JH3C2UQ4-51" value="workLoop" style="rounded=0;whiteSpace=wrap;html=1;" parent="1" vertex="1">
          <mxGeometry x="1090" y="2230" width="142" height="44" as="geometry" />
        </mxCell>
        <mxCell id="-dKRlnVZoFf6JH3C2UQ4-52" style="edgeStyle=none;rounded=0;orthogonalLoop=1;jettySize=auto;html=1;exitX=0.5;exitY=1;exitDx=0;exitDy=0;entryX=0.5;entryY=0;entryDx=0;entryDy=0;" parent="1" source="-dKRlnVZoFf6JH3C2UQ4-53" target="-dKRlnVZoFf6JH3C2UQ4-58" edge="1">
          <mxGeometry relative="1" as="geometry" />
        </mxCell>
        <mxCell id="zS6G1j2TNdugKzmZHnz_-1" value="if (rootWithPendingPassiveEffects !== null)" style="edgeLabel;html=1;align=center;verticalAlign=middle;resizable=0;points=[];" parent="-dKRlnVZoFf6JH3C2UQ4-52" vertex="1" connectable="0">
          <mxGeometry x="-0.1539" y="1" relative="1" as="geometry">
            <mxPoint as="offset" />
          </mxGeometry>
        </mxCell>
        <mxCell id="-dKRlnVZoFf6JH3C2UQ4-53" value="flushPassiveEffects" style="rounded=0;whiteSpace=wrap;html=1;" parent="1" vertex="1">
          <mxGeometry x="1134" y="2307" width="186" height="60" as="geometry" />
        </mxCell>
        <mxCell id="-dKRlnVZoFf6JH3C2UQ4-54" style="edgeStyle=none;rounded=0;orthogonalLoop=1;jettySize=auto;html=1;exitX=0;exitY=0.75;exitDx=0;exitDy=0;entryX=1;entryY=0.5;entryDx=0;entryDy=0;" parent="1" target="-dKRlnVZoFf6JH3C2UQ4-53" edge="1">
          <mxGeometry relative="1" as="geometry">
            <mxPoint x="1484.9999999999995" y="2286.2499999999995" as="sourcePoint" />
          </mxGeometry>
        </mxCell>
        <mxCell id="-dKRlnVZoFf6JH3C2UQ4-55" value="pushed in TaskQueu in previous" style="text;html=1;strokeColor=none;fillColor=none;align=center;verticalAlign=middle;whiteSpace=wrap;rounded=0;" parent="1" vertex="1">
          <mxGeometry x="1156" y="2205" width="187" height="31" as="geometry" />
        </mxCell>
        <mxCell id="-dKRlnVZoFf6JH3C2UQ4-56" style="edgeStyle=none;rounded=0;orthogonalLoop=1;jettySize=auto;html=1;exitX=0.25;exitY=1;exitDx=0;exitDy=0;entryX=0.5;entryY=0;entryDx=0;entryDy=0;" parent="1" source="-dKRlnVZoFf6JH3C2UQ4-58" target="-dKRlnVZoFf6JH3C2UQ4-59" edge="1">
          <mxGeometry relative="1" as="geometry" />
        </mxCell>
        <mxCell id="-dKRlnVZoFf6JH3C2UQ4-57" style="edgeStyle=none;rounded=0;orthogonalLoop=1;jettySize=auto;html=1;exitX=0.75;exitY=1;exitDx=0;exitDy=0;entryX=0.5;entryY=0;entryDx=0;entryDy=0;" parent="1" source="-dKRlnVZoFf6JH3C2UQ4-58" target="-dKRlnVZoFf6JH3C2UQ4-60" edge="1">
          <mxGeometry relative="1" as="geometry" />
        </mxCell>
        <mxCell id="-dKRlnVZoFf6JH3C2UQ4-58" value="flushPassiveEffectsImpl" style="rounded=0;whiteSpace=wrap;html=1;" parent="1" vertex="1">
          <mxGeometry x="1122" y="2406" width="253" height="49" as="geometry" />
        </mxCell>
        <mxCell id="-dKRlnVZoFf6JH3C2UQ4-59" value="commitPassiveUnmountEffects" style="rounded=0;whiteSpace=wrap;html=1;" parent="1" vertex="1">
          <mxGeometry x="990" y="2494" width="220" height="49" as="geometry" />
        </mxCell>
        <mxCell id="-dKRlnVZoFf6JH3C2UQ4-60" value="commitPassiveMountEffects" style="rounded=0;whiteSpace=wrap;html=1;" parent="1" vertex="1">
          <mxGeometry x="1254" y="2527" width="187" height="49" as="geometry" />
        </mxCell>
        <mxCell id="-dKRlnVZoFf6JH3C2UQ4-61" value="" style="endArrow=classic;html=1;edgeStyle=orthogonalEdgeStyle;exitX=0.5;exitY=1;exitDx=0;exitDy=0;" parent="1" edge="1">
          <mxGeometry width="50" height="50" relative="1" as="geometry">
            <mxPoint x="1353" y="2573" as="sourcePoint" />
            <mxPoint x="1400" y="2527" as="targetPoint" />
            <Array as="points">
              <mxPoint x="1353.5" y="2623" />
              <mxPoint x="1479.5" y="2623" />
              <mxPoint x="1479.5" y="2480" />
              <mxPoint x="1399.5" y="2480" />
            </Array>
          </mxGeometry>
        </mxCell>
        <mxCell id="-dKRlnVZoFf6JH3C2UQ4-62" value="commitPassiveMountOnFiber" style="edgeLabel;html=1;align=center;verticalAlign=middle;resizable=0;points=[];" parent="-dKRlnVZoFf6JH3C2UQ4-61" vertex="1" connectable="0">
          <mxGeometry x="-0.1258" y="2" relative="1" as="geometry">
            <mxPoint y="-11.5" as="offset" />
          </mxGeometry>
        </mxCell>
        <mxCell id="-dKRlnVZoFf6JH3C2UQ4-63" value="" style="endArrow=classic;html=1;entryX=0.25;entryY=0;entryDx=0;entryDy=0;exitX=0.5;exitY=1;exitDx=0;exitDy=0;" parent="1" source="-dKRlnVZoFf6JH3C2UQ4-64" target="-dKRlnVZoFf6JH3C2UQ4-5" edge="1">
          <mxGeometry width="50" height="50" relative="1" as="geometry">
            <mxPoint x="529" y="572" as="sourcePoint" />
            <mxPoint x="579" y="522" as="targetPoint" />
          </mxGeometry>
        </mxCell>
        <mxCell id="-dKRlnVZoFf6JH3C2UQ4-64" value="&lt;div&gt;&lt;span&gt;Function Component 的 first paint 进来走的是&amp;nbsp;IndeterminateComponent，dispatch 挂载的是&amp;nbsp;&amp;nbsp;&lt;/span&gt;&lt;/div&gt;HooksDispatcherOnMountInDEV，后续更新再次渲染，走的才是FunctionComponent，dispatch 挂载的是&amp;nbsp;HooksDispatcherOnUpdateInDEV&lt;br&gt;此时会深度比较 deps，更新 updateQueue" style="text;html=1;strokeColor=none;fillColor=none;align=left;verticalAlign=middle;whiteSpace=wrap;rounded=0;" parent="1" vertex="1">
          <mxGeometry x="343" y="500" width="418" height="86" as="geometry" />
        </mxCell>
        <mxCell id="-dKRlnVZoFf6JH3C2UQ4-65" style="edgeStyle=none;rounded=0;orthogonalLoop=1;jettySize=auto;html=1;exitX=0.5;exitY=1;exitDx=0;exitDy=0;entryX=0.5;entryY=0;entryDx=0;entryDy=0;" parent="1" source="-dKRlnVZoFf6JH3C2UQ4-66" target="-dKRlnVZoFf6JH3C2UQ4-68" edge="1">
          <mxGeometry relative="1" as="geometry">
            <mxPoint x="716" y="951" as="targetPoint" />
          </mxGeometry>
        </mxCell>
        <mxCell id="-dKRlnVZoFf6JH3C2UQ4-66" value="HooksDispatcherOnUpdateInDEV.useEffect" style="rounded=0;whiteSpace=wrap;html=1;" parent="1" vertex="1">
          <mxGeometry x="650" y="841" width="307" height="44" as="geometry" />
        </mxCell>
        <mxCell id="-dKRlnVZoFf6JH3C2UQ4-67" style="edgeStyle=none;rounded=0;orthogonalLoop=1;jettySize=auto;html=1;exitX=0.5;exitY=1;exitDx=0;exitDy=0;entryX=0.5;entryY=0;entryDx=0;entryDy=0;" parent="1" source="-dKRlnVZoFf6JH3C2UQ4-68" target="-dKRlnVZoFf6JH3C2UQ4-70" edge="1">
          <mxGeometry relative="1" as="geometry" />
        </mxCell>
        <mxCell id="-dKRlnVZoFf6JH3C2UQ4-68" value="updateEffect" style="rounded=0;whiteSpace=wrap;html=1;" parent="1" vertex="1">
          <mxGeometry x="650" y="946" width="154" height="49" as="geometry" />
        </mxCell>
        <mxCell id="-dKRlnVZoFf6JH3C2UQ4-69" style="edgeStyle=none;rounded=0;orthogonalLoop=1;jettySize=auto;html=1;entryX=0.5;entryY=0;entryDx=0;entryDy=0;" parent="1" source="-dKRlnVZoFf6JH3C2UQ4-70" target="-dKRlnVZoFf6JH3C2UQ4-74" edge="1">
          <mxGeometry relative="1" as="geometry">
            <mxPoint x="705" y="1171" as="targetPoint" />
          </mxGeometry>
        </mxCell>
        <mxCell id="-dKRlnVZoFf6JH3C2UQ4-70" value="updateEffectImpl" style="rounded=0;whiteSpace=wrap;html=1;" parent="1" vertex="1">
          <mxGeometry x="705" y="1061" width="176" height="49" as="geometry" />
        </mxCell>
        <mxCell id="-dKRlnVZoFf6JH3C2UQ4-71" value="这一步会从 root 开始遍历 fiber，顺序和其他 react 的遍历方式相似，若当前 fiber 被授予的 Passive 权限，则遍历该 updateQueue（为hooks的链表结构），执行其中的回调（create），并将其返回值作为其本身的 destroy" style="rounded=1;whiteSpace=wrap;html=1;align=left;" parent="1" vertex="1">
          <mxGeometry x="660" y="2191" width="363" height="127" as="geometry" />
        </mxCell>
        <mxCell id="-dKRlnVZoFf6JH3C2UQ4-72" style="rounded=0;orthogonalLoop=1;jettySize=auto;html=1;entryX=0.5;entryY=1;entryDx=0;entryDy=0;" parent="1" source="-dKRlnVZoFf6JH3C2UQ4-73" target="-dKRlnVZoFf6JH3C2UQ4-3" edge="1">
          <mxGeometry relative="1" as="geometry" />
        </mxCell>
        <mxCell id="-dKRlnVZoFf6JH3C2UQ4-73" value="&lt;span style=&quot;color: rgb(50 , 50 , 50) ; font-size: 13px ; background-color: rgba(255 , 255 , 255 , 0.01)&quot;&gt;更改 state，触发更新&lt;/span&gt;" style="rounded=0;whiteSpace=wrap;html=1;" parent="1" vertex="1">
          <mxGeometry x="320" y="852" width="154" height="49" as="geometry" />
        </mxCell>
        <mxCell id="zS6G1j2TNdugKzmZHnz_-4" style="rounded=0;orthogonalLoop=1;jettySize=auto;html=1;exitX=0.5;exitY=1;exitDx=0;exitDy=0;" parent="1" source="-dKRlnVZoFf6JH3C2UQ4-74" target="zS6G1j2TNdugKzmZHnz_-2" edge="1">
          <mxGeometry relative="1" as="geometry" />
        </mxCell>
        <mxCell id="-dKRlnVZoFf6JH3C2UQ4-74" value="比较 deps，如果改变了，则会给当前 fiber 授予 Passive 的权限，并将该 effect 的 create 放进 upadteQueue 里。" style="rounded=0;whiteSpace=wrap;html=1;" parent="1" vertex="1">
          <mxGeometry x="496" y="1180" width="334" height="100" as="geometry" />
        </mxCell>
        <mxCell id="zS6G1j2TNdugKzmZHnz_-2" value="" style="rounded=0;whiteSpace=wrap;html=1;" parent="1" vertex="1">
          <mxGeometry x="270" y="1320" width="580" height="520" as="geometry" />
        </mxCell>
        <mxCell id="zS6G1j2TNdugKzmZHnz_-3" value="更新" style="rounded=1;whiteSpace=wrap;html=1;" parent="1" vertex="1">
          <mxGeometry x="220" y="1310" width="80" height="30" as="geometry" />
        </mxCell>
        <mxCell id="zS6G1j2TNdugKzmZHnz_-5" value="flushPassiveEffectsImpl 函数中，会做一个开关锁的逻辑，将&amp;nbsp;rootWithPendingPassiveEffects 置为 null" style="rounded=0;whiteSpace=wrap;html=1;" parent="1" vertex="1">
          <mxGeometry x="23" y="1363" width="297" height="52.5" as="geometry" />
        </mxCell>
        <mxCell id="2T7SoFJlMBIhRW7BNLOC-9" style="edgeStyle=none;rounded=0;orthogonalLoop=1;jettySize=auto;html=1;entryX=0.5;entryY=0;entryDx=0;entryDy=0;" edge="1" parent="1" source="zS6G1j2TNdugKzmZHnz_-6" target="2T7SoFJlMBIhRW7BNLOC-8">
          <mxGeometry relative="1" as="geometry" />
        </mxCell>
        <mxCell id="zS6G1j2TNdugKzmZHnz_-6" value="遍历 fiber，如果有 Passive 则遍历其 upadteQueue，然后执行里头的 create" style="rounded=0;whiteSpace=wrap;html=1;" parent="1" vertex="1">
          <mxGeometry x="310" y="1560" width="240" height="50" as="geometry" />
        </mxCell>
        <mxCell id="zS6G1j2TNdugKzmZHnz_-8" value="不会再处理 useEffect 的逻辑" style="rounded=0;whiteSpace=wrap;html=1;" parent="1" vertex="1">
          <mxGeometry x="300" y="1760" width="200" height="58" as="geometry" />
        </mxCell>
        <mxCell id="2T7SoFJlMBIhRW7BNLOC-4" style="edgeStyle=orthogonalEdgeStyle;rounded=0;orthogonalLoop=1;jettySize=auto;html=1;" edge="1" parent="1" source="2T7SoFJlMBIhRW7BNLOC-3" target="2T7SoFJlMBIhRW7BNLOC-5">
          <mxGeometry relative="1" as="geometry">
            <Array as="points">
              <mxPoint x="495" y="1440" />
              <mxPoint x="414" y="1440" />
            </Array>
          </mxGeometry>
        </mxCell>
        <mxCell id="2T7SoFJlMBIhRW7BNLOC-6" value="是 高优 事件" style="edgeLabel;html=1;align=center;verticalAlign=middle;resizable=0;points=[];" vertex="1" connectable="0" parent="2T7SoFJlMBIhRW7BNLOC-4">
          <mxGeometry x="-0.098" y="-1" relative="1" as="geometry">
            <mxPoint as="offset" />
          </mxGeometry>
        </mxCell>
        <mxCell id="2T7SoFJlMBIhRW7BNLOC-11" style="edgeStyle=orthogonalEdgeStyle;rounded=0;orthogonalLoop=1;jettySize=auto;html=1;entryX=0.75;entryY=0;entryDx=0;entryDy=0;exitX=0.5;exitY=1;exitDx=0;exitDy=0;" edge="1" parent="1" source="2T7SoFJlMBIhRW7BNLOC-3" target="zS6G1j2TNdugKzmZHnz_-6">
          <mxGeometry relative="1" as="geometry">
            <Array as="points">
              <mxPoint x="495" y="1420" />
              <mxPoint x="594" y="1420" />
              <mxPoint x="594" y="1530" />
              <mxPoint x="490" y="1530" />
            </Array>
          </mxGeometry>
        </mxCell>
        <mxCell id="2T7SoFJlMBIhRW7BNLOC-13" value="不是 高优 事件" style="edgeLabel;html=1;align=center;verticalAlign=middle;resizable=0;points=[];" vertex="1" connectable="0" parent="2T7SoFJlMBIhRW7BNLOC-11">
          <mxGeometry x="0.2298" y="-3" relative="1" as="geometry">
            <mxPoint y="-24" as="offset" />
          </mxGeometry>
        </mxCell>
        <mxCell id="2T7SoFJlMBIhRW7BNLOC-3" value="首先，触发事件的时候，会判断哪些是高优事件（目前看代码只有 input 和 change）" style="rounded=0;whiteSpace=wrap;html=1;" vertex="1" parent="1">
          <mxGeometry x="340" y="1350" width="310" height="53" as="geometry" />
        </mxCell>
        <mxCell id="2T7SoFJlMBIhRW7BNLOC-7" style="rounded=0;orthogonalLoop=1;jettySize=auto;html=1;entryX=0.5;entryY=0;entryDx=0;entryDy=0;" edge="1" parent="1" source="2T7SoFJlMBIhRW7BNLOC-5" target="zS6G1j2TNdugKzmZHnz_-6">
          <mxGeometry relative="1" as="geometry" />
        </mxCell>
        <mxCell id="2T7SoFJlMBIhRW7BNLOC-5" value="立即同步执行该 create，并且将 rootWithPendingPassiveEffects 设为 null" style="rounded=0;whiteSpace=wrap;html=1;" vertex="1" parent="1">
          <mxGeometry x="289" y="1460" width="250" height="50" as="geometry" />
        </mxCell>
        <mxCell id="2T7SoFJlMBIhRW7BNLOC-10" value="&lt;span style=&quot;font-size: 12px; background-color: rgb(248, 249, 250);&quot;&gt;rootWithPendingPassiveEffects = null&lt;/span&gt;" style="edgeStyle=none;rounded=0;orthogonalLoop=1;jettySize=auto;html=1;entryX=0.5;entryY=0;entryDx=0;entryDy=0;" edge="1" parent="1" source="2T7SoFJlMBIhRW7BNLOC-8" target="zS6G1j2TNdugKzmZHnz_-8">
          <mxGeometry relative="1" as="geometry" />
        </mxCell>
        <mxCell id="2T7SoFJlMBIhRW7BNLOC-15" style="rounded=0;orthogonalLoop=1;jettySize=auto;html=1;exitX=1;exitY=1;exitDx=0;exitDy=0;entryX=0.5;entryY=0;entryDx=0;entryDy=0;" edge="1" parent="1" source="2T7SoFJlMBIhRW7BNLOC-8" target="2T7SoFJlMBIhRW7BNLOC-14">
          <mxGeometry relative="1" as="geometry" />
        </mxCell>
        <mxCell id="2T7SoFJlMBIhRW7BNLOC-16" value="&lt;span style=&quot;font-size: 12px; background-color: rgb(248, 249, 250);&quot;&gt;rootWithPendingPassiveEffects != null&lt;/span&gt;" style="edgeLabel;html=1;align=center;verticalAlign=middle;resizable=0;points=[];" vertex="1" connectable="0" parent="2T7SoFJlMBIhRW7BNLOC-15">
          <mxGeometry x="-0.1908" y="-2" relative="1" as="geometry">
            <mxPoint x="44" as="offset" />
          </mxGeometry>
        </mxCell>
        <mxCell id="2T7SoFJlMBIhRW7BNLOC-8" value="commitRoot" style="ellipse;whiteSpace=wrap;html=1;" vertex="1" parent="1">
          <mxGeometry x="496" y="1650" width="115" height="70" as="geometry" />
        </mxCell>
        <mxCell id="2T7SoFJlMBIhRW7BNLOC-14" value="继续处理 useEffect 的逻辑" style="rounded=0;whiteSpace=wrap;html=1;" vertex="1" parent="1">
          <mxGeometry x="600" y="1760" width="200" height="58" as="geometry" />
        </mxCell>
      </root>
    </mxGraphModel>
  </diagram>
</mxfile>
